<svg xmlns="http://www.w3.org/2000/svg" width="512" height="448.024" viewBox="0 0 512 448.024">
    <defs>
        <style>.a{fill:#2accf9;}</style>
    </defs>
    <path class="a"
          d="M418.2,177.2q-8.1-2.7-16.2-5.1c.9-3.7,1.7-7.4,2.5-11.1,12.3-59.6,4.2-107.5-23.1-123.3-26.3-15.1-69.2.6-112.6,38.4-4.3,3.7-8.5,7.6-12.5,11.5-2.7-2.6-5.5-5.2-8.3-7.7-45.5-40.4-91.1-57.4-118.4-41.5-26.2,15.2-34,60.3-23,116.7,1.1,5.6,2.3,11.1,3.7,16.7-6.4,1.8-12.7,3.8-18.6,5.9C38.3,196.2,0,225.4,0,255.6c0,31.2,40.8,62.5,96.3,81.5,4.5,1.5,9,3,13.6,4.3-1.5,6-2.8,11.9-4,18-10.5,55.5-2.3,99.5,23.9,114.6,27,15.6,72.4-.4,116.6-39.1,3.5-3.1,7-6.3,10.5-9.7,4.4,4.3,9,8.4,13.6,12.4,42.8,36.8,85.1,51.7,111.2,36.6,27-15.6,35.8-62.9,24.4-120.5q-1.35-6.6-3-13.5c3.2-.9,6.3-1.9,9.4-2.9,57.7-19.1,99.5-50,99.5-81.7,0-30.3-39.4-59.7-93.8-78.4ZM282.9,92.3c37.2-32.4,71.9-45.1,87.7-36,16.9,9.7,23.4,48.9,12.8,100.4-.7,3.4-1.4,6.7-2.3,10a511.926,511.926,0,0,0-67.3-10.6A505.245,505.245,0,0,0,271.2,103c3.9-3.7,7.7-7.2,11.7-10.7ZM167.2,307.5c5.1,8.7,10.3,17.4,15.8,25.9a452.822,452.822,0,0,1-46.4-7.5,467.136,467.136,0,0,1,16.3-44.5c4.6,8.8,9.3,17.5,14.3,26.1ZM136.9,187.2c14.4-3.2,29.7-5.8,45.6-7.8-5.3,8.3-10.5,16.8-15.4,25.4-4.9,8.5-9.7,17.2-14.2,26-6.3-14.9-11.6-29.5-16-43.6Zm27.4,68.9c6.6-13.8,13.8-27.3,21.4-40.6s15.8-26.2,24.4-38.9c15-1.1,30.3-1.7,45.9-1.7s31,.6,45.9,1.7q12.75,18.9,24.3,38.7t21.7,40.4q-10.05,20.7-21.6,40.8c-7.6,13.3-15.7,26.2-24.2,39-14.9,1.1-30.4,1.6-46.1,1.6s-30.9-.5-45.6-1.4q-13.05-19.05-24.6-39c-7.7-13.3-14.8-26.8-21.5-40.6Zm180.6,51.2c5.1-8.8,9.9-17.7,14.6-26.7a464.211,464.211,0,0,1,16.9,44.3,439.234,439.234,0,0,1-47,8c5.4-8.4,10.5-17,15.5-25.6Zm14.4-76.5c-4.7-8.8-9.5-17.6-14.5-26.2q-7.35-12.75-15.3-25.2a460.177,460.177,0,0,1,45.9,8A442.557,442.557,0,0,1,359.3,230.8ZM256.2,118.3a439.123,439.123,0,0,1,29.6,35.8c-19.8-.9-39.7-.9-59.5,0C236.1,141.2,246.2,129.2,256.2,118.3ZM140.2,57c16.8-9.8,54.1,4.2,93.4,39,2.5,2.2,5,4.6,7.6,7a508.051,508.051,0,0,0-42.9,53.1,527.13,527.13,0,0,0-67.2,10.4c-1.3-5.1-2.4-10.3-3.5-15.5-9.4-48.4-3.2-84.9,12.6-94ZM115.7,320.6c-4.2-1.2-8.3-2.5-12.4-3.9-21.3-6.7-45.5-17.3-63-31.2a44.871,44.871,0,0,1-18.8-29.9c0-18.3,31.6-41.7,77.2-57.6,5.7-2,11.5-3.8,17.3-5.5a531.743,531.743,0,0,0,24.5,63.6A546.623,546.623,0,0,0,115.7,320.6Zm116.6,98a183.031,183.031,0,0,1-56.4,35.3,44.261,44.261,0,0,1-35.3,1.3c-15.9-9.2-22.5-44.5-13.5-92,1.1-5.6,2.3-11.2,3.7-16.7a500.269,500.269,0,0,0,67.9,9.8,527.72,527.72,0,0,0,43.2,53.4c-3.2,3.1-6.4,6.1-9.6,8.9Zm24.5-24.3c-10.2-11-20.4-23.2-30.3-36.3,9.6.4,19.5.6,29.5.6,10.3,0,20.4-.2,30.4-.7A431.25,431.25,0,0,1,256.8,394.3Zm130.7,30A44.443,44.443,0,0,1,371,455.6c-15.9,9.2-49.8-2.8-86.4-34.2-4.2-3.6-8.4-7.5-12.7-11.5a494.686,494.686,0,0,0,42.2-53.6,492.958,492.958,0,0,0,68.2-10.5c1,4.1,1.9,8.2,2.7,12.2a182.293,182.293,0,0,1,2.5,66.3Zm18.2-107.5c-2.8.9-5.6,1.8-8.5,2.6a508,508,0,0,0-25.5-63.8,505.458,505.458,0,0,0,24.5-62.9c5.2,1.5,10.2,3.1,15,4.7,46.6,16,79.3,39.8,79.3,58C490.5,275,455.6,300.3,405.7,316.8ZM256,301.8A45.8,45.8,0,1,0,210.2,256,45.793,45.793,0,0,0,256,301.8Z"
          transform="translate(0 -32.012)"/>
</svg>