<svg width="17px" height="18px" viewBox="0 0 17 18" version="1.1" xmlns="http://www.w3.org/2000/svg" xmlns:xlink="http://www.w3.org/1999/xlink">
    <g id="Page-1" stroke="none" stroke-width="1" fill="none" fill-rule="evenodd">
        <g id="Artboard" transform="translate(-1.000000, -1.000000)" stroke="#707070" stroke-width="3">
            <path d="M16.6358205,11.3901669 C15.8795785,13.1877606 15.4395826,14.3629341 15.3158328,14.9156872 C15.1950041,15.4553927 14.757865,15.8264703 14.4983671,16.1279786 C14.4069021,16.2342509 13.9610421,16.0398031 13.8680196,16.1279786 C12.4805762,17.4431274 11.2819846,17.1218106 9.81964617,17.1218106 C5.89170623,17.1218106 3.24043423,14.1056324 3.01413007,10.3679591 C2.78782592,6.63028581 5.29926825,3.34820442 9.15146587,3.34820442 C10.4863207,3.34820442 10.9770889,3.04856344 11.8083213,3.65239954 C12.0893431,3.92295971 12.986025,4.59960304 14.4983671,5.68232956 L13.5034718,6.87708588 L16.0650904,6.87708588 L16.0650904,2" id="Path-6"></path>
        </g>
    </g>
</svg>